#!OML:ASF E:/inclinewalkrobotboard/Project1/Captureday1/Session1/subject1.ASF
:FULLY-SPECIFIED
:DEGREES
113
root 0 0 0 -2.9128815292324095 -5.063168800860723 -1.997039930832225
lowerback 10.711075128972494 2.021877855985771 1.9544174600416406
upperback 0.407661408100337 2.9712020192869635 0.810175284066841
thorax -5.450361368340008 1.4287916826765887 -0.6907103641123497
lowerneck -16.33488428698182 -3.476440131915299 -1.6243061308320332
upperneck 21.159068821262228 -4.5775586004555855 0.9379745983602571
head 9.515017319871045 -2.161588908859318 0.001939886318911399
rclavicle 1.1416651740663014E-15 -2.56695119949145E-15
rhumerus -30.187897228100294 -21.90388471394253 -76.24649141593927
rradius 27.47577759210776
rwrist 1.930806411100277
rhand -19.076275665747907 23.341965274423824
rfingers 7.125020000000021
rthumb 7.234235018231752 -6.581839535297146
lclavicle -2.8838333294113665E-15 -3.1182627259212225E-15
lhumerus -36.03162074960227 2.291070090116405 83.3979014025331
lradius 25.00341424181655
lwrist 4.764124583305664
lhand -26.857902822649503 24.298119851863994
lfingers 7.125020000000023
lthumb -0.27532333147940946 54.31310393576402
rfemur -7.157726188231903 3.229355581447531 28.306208913061738
rtibia 71.25030200223371
rfoot 13.443496969616753 -1.823787763861421
rtoes 17.559203621327242
lfemur -19.156930810551515 -2.146431262252767 -21.137121788297918
ltibia 28.56808974437345
lfoot -4.437386803720088 -2.3137509805963288
ltoes 8.292666419514156
114
root 0 0 0 -4.460421098814919 -4.329408175139547 0.32118047328981936
lowerback 10.812932729255536 1.385911738861819 -0.5674172865585649
upperback 0.5813692511301015 1.799222204684432 0.5404378739334674
thorax -5.447830903724293 0.9067178623281253 0.6186541073319913
lowerneck -16.08865809475453 -3.0658850073655284 -1.6729740734889593
upperneck 21.685430221843482 -3.9913837303666564 0.733975068999465
head 9.603368395192799 -1.906205706803964 0.006618089563533713
rclavicle 1.2438718173159437E-15 -7.57146335919539E-16
rhumerus -30.98033194240707 -22.68123390819835 -76.18425951643405
rradius 26.74573229157511
rwrist 2.4370772698187624
rhand -18.982945774737253 23.09887636556375
rfingers 7.125020000000021
rthumb 7.3243343418691556 -6.821693542626921
lclavicle -2.2403147583049626E-15 -8.350285820650731E-16
lhumerus -35.647003000240744 1.4998012931184947 83.54020877648037
lradius 25.62463784692951
lwrist 5.349596710440817
lhand -27.12154888957722 24.295332356394507
lfingers 7.125020000000023
lthumb -0.5271250209535596 54.3057677970025
rfemur -9.199165335540618 2.3096603900573935 27.481671825414494
rtibia 74.63273837771727
rfoot 11.70898627696335 -3.110652079089924
rtoes 17.12220897593666
lfemur -15.668523908743524 -2.5635979115850276 -22.217978438105277
ltibia 28.531740499160794
lfoot -6.714979676382716 -1.5701732892074909
ltoes 6.362006486419901
115
root 0 0 0 -5.289641176639307 -3.6830224402362695 1.098684083820571
lowerback 11.220540702106195 0.8937190985767018 -1.5053227364181094
upperback 0.7360220611299274 1.040366743076315 0.5206706151536986
thorax -5.585928281564394 0.5525277048232853 1.2367886389318594
lowerneck -16.82260786507613 -2.8860982900392713 -1.933642085272731
upperneck 21.013265412607545 -3.6525315260001685 0.437260027912574
head 9.470865556495857 -1.7878865982994803 -0.011849086585816404
rclavicle 4.739331664815E-16 7.454629622694734E-17
rhumerus -31.673330236227727 -23.465533481263996 -76.14972561922573
rradius 25.92636667129468
rwrist 3.0024544435573146
rhand -18.88048858903273 22.862562270210706
rfingers 7.125020000000021
rthumb 7.423056662675078 -7.065031931632696
lclavicle -2.7936927881228133E-15 4.753565769634503E-16
lhumerus -35.10005138872946 0.3804250909268012 83.67360826140902
lradius 26.572176164680737
lwrist 5.864730053153969
lhand -27.297374991666157 24.389095531662566
lfingers 7.125020000000026
lthumb -0.6955599733776863 54.39773434721474
rfemur -19.45475699728568 -0.5154743431189073 24.072777400413344
rtibia 79.65328606544723
rfoot 3.20751976914735 -6.340157794299611
rtoes 11.843271937031902
lfemur -7.562747883599279 -3.044857040488553 -24.459424439537024
ltibia 28.0453407026242
lfoot -12.418195165890388 0.02430162936892888
ltoes -1.6359208992562628
116
root 0 0 0 -4.705533834078962 -2.5506297196972723 1.5975544128872525
lowerback 11.857001155675075 0.20774285940838444 -2.257529215414528
upperback 1.0624039652111075 0.05812153859455771 0.7753277146390958
thorax -5.592829057033025 0.09747490738536835 2.0674580487283665
lowerneck -16.19640444573188 -2.6979418260843304 -2.152331626981506
upperneck 19.515697227551215 -3.235485875116172 0.38318883084413136
head 8.847157223689504 -1.6562914288023425 0.08237265244919506
rclavicle 1.3874103574702897E-15 6.736474174590504E-17
rhumerus -31.713105560123722 -23.250833475326644 -76.25946583352261
rradius 26.0502348569238
rwrist 2.873515286683195
rhand -18.887177891701068 22.892919125459112
rfingers 7.1250200000000214
rthumb 7.416046318669699 -7.0274575891464295
lclavicle -1.415485143974053E-15 7.344048626750036E-16
lhumerus -32.05809435736353 -2.2458335720591136 83.65848124550324
lradius 28.93771326382297
lwrist 6.650756154079662
lhand -27.54365977010378 24.24652152468704
lfingers 7.125020000000022
lthumb -0.9349554858139211 54.23583196074253
rfemur -28.72959466586032 -0.5316537929805487 21.27331961403683
rtibia 61.873700370189646
rfoot -6.999443387518356 -7.818672484185418
rtoes 4.940776773329726
lfemur -0.794422008665367 -3.427760639542435 -26.389524453431697
ltibia 26.23348962927219
lfoot -16.096334423690724 1.0607090501129592
ltoes -3.2688683981094897
